<svg width="16" height="16" viewBox="0 0 16 16" fill="none" xmlns="http://www.w3.org/2000/svg">
<path d="M2.18337 1.84009H13.8166C14.4421 1.85137 14.9595 2.06296 15.3689 2.47485C15.7783 2.88675 15.9886 3.39738 16 4.00675V12.6734C15.9886 13.2828 15.7783 13.7934 15.3689 14.2053C14.9595 14.6172 14.4421 14.8288 13.8166 14.8401H2.18337C1.55792 14.8288 1.04051 14.6172 0.63113 14.2053C0.221748 13.7934 0.0113717 13.2828 0 12.6734V4.00675C0.0113717 3.39738 0.221748 2.88675 0.63113 2.47485C1.04051 2.06296 1.55792 1.85137 2.18337 1.84009ZM14.4648 3.68514C14.408 3.56101 14.3227 3.46509 14.209 3.39738C14.0952 3.32967 13.9645 3.29017 13.8166 3.27889H2.18337C2.03554 3.29017 1.90476 3.32967 1.79104 3.39738C1.67733 3.46509 1.59204 3.56101 1.53518 3.68514L8 8.18774L14.4648 3.68514ZM14.5501 5.39478L8.40938 9.6604C8.28429 9.73939 8.14783 9.77889 8 9.77889C7.85217 9.77889 7.71571 9.73939 7.59062 9.6604L1.44989 5.39478V12.6734C1.44989 12.8765 1.52097 13.0458 1.66311 13.1812C1.80526 13.3167 1.97868 13.39 2.18337 13.4013H13.8166C14.0213 13.39 14.1947 13.3167 14.3369 13.1812C14.479 13.0458 14.5501 12.8765 14.5501 12.6734V5.39478Z" fill="white"/>
<path fill-rule="evenodd" clip-rule="evenodd" d="M14.578 3.71602L14.5466 3.64766C14.4824 3.50748 14.3849 3.39741 14.255 3.32005C14.128 3.24442 13.9835 3.20136 13.8235 3.18915L13.8166 3.18863L2.1765 3.18889C2.0165 3.2011 1.87202 3.24442 1.745 3.32005C1.61507 3.39741 1.51757 3.50748 1.45336 3.64766L1.42204 3.71602L8 8.29742L14.578 3.71602ZM14.6401 5.22267L8.3597 9.58533C8.24944 9.65456 8.13017 9.68889 8 9.68889C7.86983 9.68889 7.75056 9.65456 7.6403 9.58533L1.35989 5.22267V12.6734C1.35989 12.9002 1.44037 13.0933 1.60103 13.2464C1.75941 13.3973 1.95338 13.4787 2.17841 13.4911L2.18337 13.4914L13.8216 13.4913C14.0466 13.4789 14.2406 13.3973 14.399 13.2464C14.5596 13.0933 14.6401 12.9002 14.6401 12.6734V5.22267ZM7.59062 9.6604C7.71571 9.73939 7.85217 9.77889 8 9.77889C8.14783 9.77889 8.28429 9.73939 8.40938 9.6604L14.5501 5.39478V12.6734C14.5501 12.8765 14.479 13.0458 14.3369 13.1812C14.1947 13.3167 14.0213 13.39 13.8166 13.4013H2.18337C1.97868 13.39 1.80526 13.3167 1.66311 13.1812C1.52097 13.0458 1.44989 12.8765 1.44989 12.6734V5.39478L7.59062 9.6604ZM13.8158 1.93009C14.4195 1.94116 14.9137 2.14454 15.305 2.5383C15.697 2.93267 15.8989 3.4205 15.91 4.00757V12.6726C15.8989 13.2597 15.697 13.7475 15.305 14.1419C14.9137 14.5356 14.4195 14.739 13.8158 14.7501H2.18419C1.58052 14.739 1.08632 14.5356 0.694964 14.1419C0.302991 13.7475 0.101138 13.2597 0.09 12.6726V4.0076C0.101138 3.42052 0.302991 2.93268 0.694964 2.5383C1.08632 2.14454 1.5805 1.94116 2.18415 1.93009H13.8158ZM0 4.00675V12.6734C0.0113717 13.2828 0.221748 13.7934 0.63113 14.2053C1.04051 14.6172 1.55792 14.8288 2.18337 14.8401H13.8166C14.4421 14.8288 14.9595 14.6172 15.3689 14.2053C15.7783 13.7934 15.9886 13.2828 16 12.6734V4.00675C15.9886 3.39738 15.7783 2.88675 15.3689 2.47485C14.9595 2.06296 14.4421 1.85137 13.8166 1.84009H2.18337C1.55792 1.85137 1.04051 2.06296 0.63113 2.47485C0.221748 2.88675 0.0113717 3.39738 0 4.00675ZM14.209 3.39738C14.3227 3.46509 14.408 3.56101 14.4648 3.68514L8 8.18774L1.53518 3.68514C1.59204 3.56101 1.67733 3.46509 1.79104 3.39738C1.90476 3.32967 2.03554 3.29017 2.18337 3.27889H13.8166C13.9645 3.29017 14.0952 3.32967 14.209 3.39738Z" fill="white"/>
</svg>
